Coordinates
version=1
nRows=23
nColumns=38
inDegrees=no

Units are S.I. units (second, meters, Newtons, ...)
If the header above contains a line with 'inDegrees', this indicates whether rotational values are in degrees (yes) or radians (no).

endheader
time	pelvis_tilt	pelvis_list	pelvis_rotation	pelvis_tx	pelvis_ty	pelvis_tz	hip_flexion_r	hip_adduction_r	hip_rotation_r	knee_angle_r	ankle_angle_r	subtalar_angle_r	mtp_angle_r	hip_flexion_l	hip_adduction_l	hip_rotation_l	knee_angle_l	ankle_angle_l	subtalar_angle_l	mtp_angle_l	lumbar_extension	lumbar_bending	lumbar_rotation	arm_flex_r	arm_add_r	arm_rot_r	elbow_flex_r	pro_sup_r	wrist_flex_r	wrist_dev_r	arm_flex_l	arm_add_l	arm_rot_l	elbow_flex_l	pro_sup_l	wrist_flex_l	wrist_dev_l
0	3.05677	1.47765	-1.45087	0.68326	-0.428457	0.944208	-0.0306936	0.0570372	-0.151919	0.214618	0.118881	0	0	0.434366	-0.188314	-0.155709	1.31191	0.142039	0	0	-0.258195	-0.0541978	-0.0720894	-0.110629	-0.2394	0.142405	0.513922	0.940167	0	0	-0.121513	-0.391012	0.257951	0.768798	1.18422	0	0
0.01	3.09725	1.47625	-1.49854	0.683678	-0.420341	0.944625	-0.04488	0.0539543	-0.142374	0.209282	0.123405	0	0	0.44666	-0.182425	-0.16572	1.2799	0.143194	0	0	-0.260962	-0.0595574	-0.0691374	-0.110084	-0.242443	0.147936	0.518714	0.938001	0	0	-0.119015	-0.390302	0.258233	0.768457	1.18756	0	0
0.02	3.13102	1.47342	-1.53927	0.684096	-0.411935	0.945002	-0.0616459	0.0514395	-0.133871	0.202081	0.1275	0	0	0.454885	-0.177613	-0.177587	1.24348	0.145194	0	0	-0.265116	-0.0645203	-0.066987	-0.108795	-0.245181	0.154831	0.521688	0.93615	0	0	-0.117834	-0.389809	0.257429	0.768223	1.19014	0	0
0.03	-3.12728	1.47036	-1.56983	0.684444	-0.403444	0.945214	-0.0782476	0.049406	-0.127542	0.195793	0.13219	0	0	0.460951	-0.173085	-0.189166	1.20307	0.148569	0	0	-0.269413	-0.0687754	-0.066344	-0.107066	-0.247525	0.162312	0.523726	0.93347	0	0	-0.117129	-0.389774	0.256828	0.767447	1.19105	0	0
0.04	-3.10926	1.46728	-1.59335	0.684746	-0.394969	0.945249	-0.0943568	0.0476247	-0.121648	0.190477	0.137309	0	0	0.464687	-0.169153	-0.20205	1.15862	0.15217	0	0	-0.273845	-0.0725088	-0.065985	-0.105217	-0.249699	0.169323	0.525305	0.929542	0	0	-0.11633	-0.389933	0.25712	0.766106	1.19019	0	0
0.05	-3.09897	1.46459	-1.60883	0.685012	-0.386512	0.945054	-0.109661	0.0463807	-0.116263	0.185895	0.142682	0	0	0.466723	-0.1664	-0.216906	1.11042	0.154064	0	0	-0.277896	-0.0755443	-0.0659008	-0.10327	-0.251292	0.175059	0.526744	0.923776	0	0	-0.115416	-0.390229	0.258177	0.764321	1.18777	0	0
0.06	-3.10293	1.46263	-1.60923	0.685241	-0.378	0.944585	-0.124312	0.0468291	-0.111406	0.181358	0.147397	0	0	0.467869	-0.166291	-0.234492	1.05931	0.154022	0	0	-0.281151	-0.0769642	-0.0662603	-0.101382	-0.251287	0.174279	0.526668	0.928857	0	0	-0.114548	-0.3902	0.258075	0.761763	1.18995	0	0
0.07	-3.1101	1.46033	-1.60619	0.685445	-0.369444	0.944014	-0.140206	0.0477248	-0.106442	0.175191	0.152062	0	0	0.465667	-0.166219	-0.254333	1.00301	0.151368	0	0	-0.284803	-0.0780811	-0.0667182	-0.0999485	-0.251063	0.173406	0.527076	0.933657	0	0	-0.113325	-0.390331	0.258751	0.758269	1.19145	0	0
0.08	-3.12128	1.45832	-1.59829	0.685502	-0.360894	0.943255	-0.156107	0.0490613	-0.101927	0.168839	0.157268	0	0	0.461471	-0.16359	-0.271523	0.941514	0.147217	0	0	-0.288269	-0.0784915	-0.0676262	-0.0989519	-0.250748	0.171914	0.528147	0.938758	0	0	-0.111729	-0.390707	0.260872	0.754287	1.19253	0	0
0.09	-3.13901	1.45665	-1.5832	0.685386	-0.35228	0.942267	-0.171894	0.0510063	-0.097635	0.162492	0.162503	0	0	0.455539	-0.159935	-0.2878	0.875902	0.142451	0	0	-0.291269	-0.0777734	-0.0685375	-0.0985951	-0.250738	0.169871	0.530029	0.943691	0	0	-0.109879	-0.390889	0.263827	0.749881	1.1932	0	0
0.1	3.12115	1.45583	-1.56196	0.685144	-0.34354	0.940992	-0.187392	0.0536481	-0.0942522	0.155158	0.167935	0	0	0.448698	-0.15547	-0.303523	0.806864	0.138028	0	0	-0.293069	-0.0761869	-0.0696333	-0.0989271	-0.251005	0.168204	0.531955	0.948382	0	0	-0.108058	-0.391014	0.267122	0.745163	1.19376	0	0
0.11	3.09704	1.45604	-1.53898	0.684778	-0.334764	0.939435	-0.201642	0.0563297	-0.0917603	0.148092	0.174701	0	0	0.441341	-0.149566	-0.318803	0.734591	0.134022	0	0	-0.293634	-0.0742829	-0.0711314	-0.099021	-0.251478	0.167893	0.533356	0.951152	0	0	-0.106352	-0.391082	0.270191	0.740209	1.19438	0	0
0.12	3.07195	1.457	-1.5149	0.684287	-0.325909	0.937627	-0.214729	0.0587369	-0.0896186	0.142016	0.182548	0	0	0.433194	-0.142053	-0.333428	0.659589	0.131167	0	0	-0.293178	-0.0721751	-0.0725911	-0.099126	-0.252199	0.167881	0.534553	0.952931	0	0	-0.105007	-0.390926	0.272985	0.735149	1.19547	0	0
0.13	3.04697	1.45869	-1.49012	0.683593	-0.31704	0.935612	-0.226224	0.0606879	-0.0890353	0.137673	0.191427	0	0	0.424519	-0.131975	-0.344255	0.58239	0.130185	0	0	-0.291989	-0.0699639	-0.0746551	-0.0995305	-0.253084	0.167282	0.535455	0.954801	0	0	-0.103698	-0.390506	0.274933	0.730021	1.19816	0	0
0.14	3.03503	1.46009	-1.4774	0.682646	-0.308206	0.933613	-0.237318	0.0606684	-0.0902916	0.135128	0.201209	0	0	0.4122	-0.116527	-0.347376	0.499151	0.127243	0	0	-0.291422	-0.0690571	-0.0777854	-0.0999085	-0.254559	0.171071	0.537211	0.944583	0	0	-0.101791	-0.389541	0.275031	0.723813	1.20564	0	0
0.15	3.02407	1.46233	-1.46506	0.681587	-0.299312	0.931503	-0.246391	0.0601221	-0.0933455	0.134937	0.211782	0	0	0.398335	-0.0986143	-0.3425	0.413329	0.124411	0	0	-0.290211	-0.0682903	-0.0812772	-0.0992198	-0.251286	0.15397	0.53334	0.976261	0	0	-0.100087	-0.385725	0.263411	0.714784	1.24833	0	0
0.16	3.02899	1.46301	-1.46757	0.680298	-0.290262	0.929601	-0.259504	0.057885	-0.0984848	0.13252	0.223083	0	0	0.376447	-0.0748282	-0.319208	0.3174	0.116488	0	0	-0.290727	-0.0689271	-0.0863492	-0.0984653	-0.250262	0.150364	0.531989	0.979021	0	0	-0.0989089	-0.384124	0.25939	0.708108	1.25948	0	0
0.17	3.02564	1.46453	-1.46332	0.679153	-0.281033	0.927493	-0.268173	0.0560229	-0.102236	0.135391	0.233918	0	0	0.353051	-0.0535048	-0.285621	0.223067	0.105411	0	0	-0.289755	-0.0692237	-0.0900845	-0.0978393	-0.249477	0.147869	0.530736	0.980865	0	0	-0.0989837	-0.382747	0.255543	0.702587	1.26749	0	0
0.18	3.03286	1.46591	-1.47077	0.678049	-0.271424	0.925311	-0.274637	0.0524953	-0.106693	0.142912	0.246389	0	0	0.320454	-0.0309796	-0.229648	0.116606	0.077939	0	0	-0.288026	-0.0711328	-0.0928901	-0.0978797	-0.248636	0.145495	0.52951	0.982078	0	0	-0.100066	-0.381256	0.251208	0.697501	1.27472	0	0
0.19	3.00186	1.46783	-1.44095	0.677304	-0.261627	0.922872	-0.281827	0.0534824	-0.107466	0.148333	0.257328	0	0	0.299679	-0.0214632	-0.193187	0.04305	0.0581786	0	0	-0.284644	-0.069728	-0.093924	-0.0982798	-0.248194	0.144671	0.528765	0.982595	0	0	-0.102422	-0.380423	0.247645	0.693819	1.27894	0	0
0.2	2.97305	1.46865	-1.41337	0.676645	-0.251526	0.920506	-0.288798	0.0491532	-0.130173	0.159204	0.274773	0	0	0.284772	-0.0155763	-0.171483	0	0.0411454	0	0	-0.281824	-0.0689314	-0.0948193	-0.09884	-0.247477	0.144087	0.527467	0.984582	0	0	-0.105465	-0.380841	0.247104	0.691001	1.27396	0	0
0.21	2.9743	1.46622	-1.41399	0.675975	-0.241841	0.918379	-0.301315	0.0532032	-0.123596	0.165787	0.281553	0	0	0.289063	-0.0102355	-0.175109	0	0.0369967	0	0	-0.284172	-0.0710111	-0.0965176	-0.0986316	-0.246573	0.144901	0.526514	0.985812	0	0	-0.106913	-0.381642	0.244309	0.687996	1.27594	0	0
0.22	2.96598	1.46517	-1.40824	0.675402	-0.231669	0.916496	-0.308793	0.0513375	-0.125027	0.177602	0.290856	0	0	0.288091	-0.00660026	-0.185485	0	0.036125	0	0	-0.284175	-0.0727017	-0.0961751	-0.0977743	-0.245922	0.146165	0.525141	0.986723	0	0	-0.109618	-0.381692	0.240668	0.684429	1.27765	0	0
